#!OML:ASF E:\emotionWalksFemale\Project 1\Capture day 1\Session 1\Female1.ASF
:FULLY-SPECIFIED
:DEGREES
1862
root -8.83935 15.5652 -32.3028 -540.032 39.6509 189.147
lowerback 4.24537 -0.667784 -5.27245
upperback -5.48951 -1.26974 -2.04487
thorax -8.0976 -0.290379 0.925562
lowerneck -11.9538 -6.66812 -8.98424
upperneck 25.2759 -7.65028 3.41021
head 10.5829 -3.72796 1.78267
rclavicle -5.04913e-014 3.65764e-014
rhumerus 19.4448 9.62389 -37.5254
rradius 29.4968
rwrist 18.3823
rhand -4.07599 -36.3739
rfingers 7.12502
rthumb 21.681 -425.18
lclavicle -5.04913e-014 3.65764e-014
lhumerus 26.806 -11.5693 52.2413
lradius 28.6269
lwrist -32.9561
lhand -8.66285 -48.0194
lfingers 7.12502
lthumb 17.271 -18.7669
rfemur -18.9579 4.99348 22.9411
rtibia 26.8651
rfoot -25.6324 -34.7068
rtoes 33.546
lfemur 3.78045 -31.8131 -22.4005
ltibia 23.4596
lfoot -54.2757 34.9984
ltoes 41.1558
1863
root -8.83342 15.5759 -32.3517 -539.996 40.1861 189.291
lowerback 4.68396 -0.659821 -5.36587
upperback -5.67223 -1.30194 -1.99248
thorax -8.55101 -0.284014 1.04009
lowerneck -11.7035 -6.56042 -8.85392
upperneck 25.2111 -7.50855 3.2804
head 10.4886 -3.66684 1.74255
rclavicle -5.64548e-014 -3.49861e-014
rhumerus 19.4086 9.96985 -37.3902
rradius 29.3719
rwrist 18.1767
rhand -4.43125 -36.1467
rfingers 7.12502
rthumb 21.3398 -424.992
lclavicle -5.64548e-014 -3.49861e-014
lhumerus 26.4837 -11.8568 52.2904
lradius 28.6167
lwrist -32.6794
lhand -8.6943 -47.8767
lfingers 7.12502
lthumb 17.2407 -18.6215
rfemur -19.2129 5.43942 22.8831
rtibia 26.3824
rfoot -25.5794 -35.1449
rtoes 33.5782
lfemur 4.38318 -31.7339 -22.7064
ltibia 23.1564
lfoot -54.8307 35.1688
ltoes 41.6766
1864
root -8.83007 15.572 -32.403 -539.914 40.7276 189.459
lowerback 4.67381 -0.687905 -5.33048
upperback -5.56018 -1.33725 -1.96381
thorax -8.42048 -0.310894 1.05586
lowerneck -11.7688 -6.45878 -8.62096
upperneck 24.9516 -7.38575 3.12171
head 10.3792 -3.61468 1.66206
rclavicle 1.35174e-014 4.6118e-014
rhumerus 19.7983 9.71646 -37.4917
rradius 29.0239
rwrist 18.4256
rhand -4.52277 -36.1453
rfingers 7.12502
rthumb 21.2519 -425
lclavicle 1.35174e-014 4.6118e-014
lhumerus 26.4552 -11.384 52.6171
lradius 28.5354
lwrist -33.1844
lhand -8.79157 -47.9181
lfingers 7.12502
lthumb 17.1471 -18.6547
rfemur -19.4642 6.1824 22.785
rtibia 25.9656
rfoot -25.6275 -35.7394
rtoes 33.2794
lfemur 4.91943 -31.5057 -22.9775
ltibia 22.845
lfoot -55.0002 35.5366
ltoes 42.0285
1865
root -8.82969 15.577 -32.4506 -539.641 41.1654 189.589
lowerback 4.64538 -0.74214 -5.28253
upperback -5.58611 -1.4041 -1.95616
thorax -8.42853 -0.345519 1.04451
lowerneck -11.8843 -6.41535 -8.50452
upperneck 24.8444 -7.331 3.03722
head 10.3494 -3.59286 1.61652
rclavicle -4.53229e-014 3.18055e-015
rhumerus 19.8523 9.59203 -37.4846
rradius 29.0971
rwrist 18.4401
rhand -4.27538 -36.3499
rfingers 7.12502
rthumb 21.4895 -425.178
lclavicle -4.53229e-014 3.18055e-015
lhumerus 26.4021 -11.1345 52.766
lradius 28.5451
lwrist -33.5913
lhand -8.73726 -48.1791
lfingers 7.12502
lthumb 17.1993 -18.9203
rfemur -19.8997 6.94162 22.5544
rtibia 25.5691
rfoot -26.7022 -35.5834
rtoes 35.3454
lfemur 5.0383 -30.9717 -22.9617
ltibia 22.4965
lfoot -54.5748 36.0384
ltoes 41.5646
1866
root -8.82394 15.589 -32.4959 -539.31 41.5172 189.812
lowerback 4.55381 -0.824336 -5.21842
upperback -5.58112 -1.50118 -1.9296
thorax -8.36373 -0.398089 1.0469
lowerneck -12.0324 -6.40985 -8.40808
upperneck 24.8282 -7.32935 2.9842
head 10.3649 -3.59185 1.57736
rclavicle 3.89618e-014 2.22639e-014
rhumerus 19.8186 9.45399 -37.4797
rradius 29.3053
rwrist 18.4597
rhand -3.96266 -36.5527
rfingers 7.12502
rthumb 21.7898 -425.346
lclavicle 3.89618e-014 2.22639e-014
lhumerus 26.4388 -11.2725 52.4667
lradius 28.6469
lwrist -33.3749
lhand -8.46828 -48.2766
lfingers 7.12502
lthumb 17.4582 -19.0406
rfemur -20.2811 7.51357 22.4367
rtibia 25.1522
rfoot -28.3089 -35.375
rtoes 38.3666
lfemur 5.11563 -30.5688 -22.8509
ltibia 22.2838
lfoot -54.5456 36.0935
ltoes 41.6296
1867
root -8.81437 15.595 -32.538 -539.132 41.9136 190.001
lowerback 4.53958 -0.904684 -5.25429
upperback -5.49343 -1.6111 -1.90566
thorax -8.25233 -0.455163 1.10496
lowerneck -12.0496 -6.3502 -8.29665
upperneck 24.5826 -7.31389 3.09962
head 10.2758 -3.56832 1.60117
rclavicle -5.68524e-014 5.88403e-014
rhumerus 20.141 8.91544 -37.9509
rradius 28.9757
rwrist 19.2026
rhand -4.14557 -36.234
rfingers 7.12502
rthumb 21.6142 -425.048
lclavicle -5.68524e-014 5.88403e-014
lhumerus 26.5157 -11.5346 51.9716
lradius 28.8035
lwrist -32.8549
lhand -8.36011 -47.8491
lfingers 7.12502
lthumb 17.5623 -18.6223
rfemur -20.611 7.70228 22.4396
rtibia 24.823
rfoot -28.3054 -36.0235
rtoes 38.1928
lfemur 5.46391 -30.3054 -22.9056
ltibia 21.9654
lfoot -54.7426 35.985
ltoes 42.3921
1868
root -8.80569 15.5967 -32.5747 -538.805 42.3003 190.326
lowerback 4.80578 -0.977299 -5.34697
upperback -5.52801 -1.73331 -1.754
thorax -8.43317 -0.501411 1.3358
lowerneck -12.2782 -6.28836 -8.20039
upperneck 24.5252 -7.24374 3.10372
head 10.2894 -3.52955 1.58941
rclavicle 6.55989e-014 -1.90833e-014
rhumerus 20.2254 9.09535 -37.6813
rradius 29.0532
rwrist 18.8987
rhand -4.49663 -35.9112
rfingers 7.12502
rthumb 21.277 -424.763
lclavicle 6.55989e-014 -1.90833e-014
lhumerus 26.5501 -11.7837 51.5629
lradius 28.909
lwrist -32.3774
lhand -8.64299 -47.3704
lfingers 7.12502
lthumb 17.2901 -18.1196
rfemur -20.9558 8.69717 22.4168
rtibia 24.4106
rfoot -28.3562 -37.2757
rtoes 37.5157
lfemur 5.61712 -29.9475 -22.7624
ltibia 21.7553
lfoot -54.6448 36.179
ltoes 42.9113
1869
root -8.78641 15.597 -32.6352 -539.024 42.9845 190.104
lowerback 4.7251 -0.933529 -5.63072
upperback -5.4176 -1.69391 -1.79972
thorax -8.26423 -0.473631 1.43958
lowerneck -12.5988 -6.24788 -8.00559
upperneck 24.5874 -7.20619 3.05839
head 10.3599 -3.49962 1.53725
rclavicle -9.66093e-014 -9.54166e-015
rhumerus 20.2658 9.14813 -37.5257
rradius 29.2139
rwrist 18.6439
rhand -4.32424 -36.1311
rfingers 7.12502
rthumb 21.4426 -424.964
lclavicle -9.66093e-014 -9.54166e-015
lhumerus 26.6506 -11.7863 51.3161
lradius 28.9273
lwrist -32.2858
lhand -8.81088 -47.4595
lfingers 7.12502
lthumb 17.1285 -18.1945
rfemur -20.9516 9.18257 22.0092
rtibia 24.0696
rfoot -28.8395 -37.2307
rtoes 38.0661
lfemur 6.37684 -29.9286 -23.59
ltibia 21.528
lfoot -55.4873 36.6478
ltoes 43.2407
1870
root -8.77676 15.6058 -32.6697 -538.494 43.2947 190.433
lowerback 4.6645 -0.977674 -5.5305
upperback -5.48996 -1.738 -1.74626
thorax -8.30449 -0.496607 1.44411
lowerneck -12.6832 -6.2762 -7.83415
upperneck 24.5459 -7.26647 2.97268
head 10.3531 -3.52397 1.46781
rclavicle -5.56597e-015 -3.02153e-014
rhumerus 20.2071 8.91465 -37.6078
rradius 29.2889
rwrist 18.7361
rhand -4.00872 -36.4095
rfingers 7.12502
rthumb 21.7456 -425.208
lclavicle -5.56597e-015 -3.02153e-014
lhumerus 26.7368 -11.7458 51.4143
lradius 28.9206
lwrist -32.4224
lhand -8.86237 -47.6869
lfingers 7.12502
lthumb 17.0789 -18.4176
rfemur -21.3998 9.7529 21.9857
rtibia 23.696
rfoot -29.3027 -37.7693
rtoes 38.6734
lfemur 6.18325 -29.4544 -23.1934
ltibia 21.3647
lfoot -55.1025 36.9534
ltoes 42.4174
